<mxfile host="app.diagrams.net" modified="2023-09-20T08:35:26.795Z" agent="Mozilla/5.0 (X11; Linux x86_64) AppleWebKit/537.36 (KHTML, like Gecko) Chrome/117.0.0.0 Safari/537.36" etag="Tz9DhbLyOFKgM9B1BY__" version="21.7.5" type="device">
  <diagram name="Page-1" id="g67ECz4TT8EJPtl5XIoc">
    <mxGraphModel dx="1605" dy="907" grid="1" gridSize="10" guides="1" tooltips="1" connect="1" arrows="1" fold="1" page="1" pageScale="1" pageWidth="1169" pageHeight="827" math="0" shadow="0">
      <root>
        <mxCell id="0" />
        <mxCell id="1" parent="0" />
        <mxCell id="ic_0oXGj2bZ9a9TocJdS-10" style="edgeStyle=orthogonalEdgeStyle;rounded=0;orthogonalLoop=1;jettySize=auto;html=1;exitX=0.5;exitY=1;exitDx=0;exitDy=0;entryX=0.5;entryY=0;entryDx=0;entryDy=0;" parent="1" source="ic_0oXGj2bZ9a9TocJdS-1" target="ic_0oXGj2bZ9a9TocJdS-3" edge="1">
          <mxGeometry relative="1" as="geometry" />
        </mxCell>
        <mxCell id="ic_0oXGj2bZ9a9TocJdS-1" value="START" style="rounded=1;whiteSpace=wrap;html=1;" parent="1" vertex="1">
          <mxGeometry x="340" y="30" width="120" height="60" as="geometry" />
        </mxCell>
        <mxCell id="ic_0oXGj2bZ9a9TocJdS-11" style="edgeStyle=orthogonalEdgeStyle;rounded=0;orthogonalLoop=1;jettySize=auto;html=1;exitX=1;exitY=0.25;exitDx=0;exitDy=0;entryX=0.5;entryY=1;entryDx=0;entryDy=0;" parent="1" source="ic_0oXGj2bZ9a9TocJdS-3" target="ic_0oXGj2bZ9a9TocJdS-8" edge="1">
          <mxGeometry relative="1" as="geometry" />
        </mxCell>
        <mxCell id="ic_0oXGj2bZ9a9TocJdS-12" style="edgeStyle=orthogonalEdgeStyle;rounded=0;orthogonalLoop=1;jettySize=auto;html=1;exitX=0.75;exitY=1;exitDx=0;exitDy=0;" parent="1" source="ic_0oXGj2bZ9a9TocJdS-3" target="ic_0oXGj2bZ9a9TocJdS-6" edge="1">
          <mxGeometry relative="1" as="geometry" />
        </mxCell>
        <mxCell id="ic_0oXGj2bZ9a9TocJdS-13" style="edgeStyle=orthogonalEdgeStyle;rounded=0;orthogonalLoop=1;jettySize=auto;html=1;exitX=0;exitY=1;exitDx=0;exitDy=0;entryX=0.5;entryY=0;entryDx=0;entryDy=0;" parent="1" source="ic_0oXGj2bZ9a9TocJdS-3" target="ic_0oXGj2bZ9a9TocJdS-5" edge="1">
          <mxGeometry relative="1" as="geometry">
            <Array as="points">
              <mxPoint x="340" y="140" />
              <mxPoint x="280" y="140" />
              <mxPoint x="280" y="50" />
              <mxPoint x="155" y="50" />
            </Array>
          </mxGeometry>
        </mxCell>
        <mxCell id="C2xVnzd4WC-b1rI_vrvW-3" style="edgeStyle=orthogonalEdgeStyle;rounded=0;orthogonalLoop=1;jettySize=auto;html=1;exitX=1;exitY=1;exitDx=0;exitDy=0;entryX=0.5;entryY=0;entryDx=0;entryDy=0;" parent="1" source="ic_0oXGj2bZ9a9TocJdS-3" target="ic_0oXGj2bZ9a9TocJdS-4" edge="1">
          <mxGeometry relative="1" as="geometry">
            <Array as="points">
              <mxPoint x="460" y="190" />
              <mxPoint x="600" y="190" />
            </Array>
          </mxGeometry>
        </mxCell>
        <mxCell id="C2xVnzd4WC-b1rI_vrvW-40" style="edgeStyle=orthogonalEdgeStyle;rounded=0;orthogonalLoop=1;jettySize=auto;html=1;exitX=1;exitY=0.75;exitDx=0;exitDy=0;" parent="1" source="ic_0oXGj2bZ9a9TocJdS-3" target="C2xVnzd4WC-b1rI_vrvW-39" edge="1">
          <mxGeometry relative="1" as="geometry" />
        </mxCell>
        <mxCell id="ic_0oXGj2bZ9a9TocJdS-3" value="MENU" style="rounded=0;whiteSpace=wrap;html=1;" parent="1" vertex="1">
          <mxGeometry x="340" y="120" width="120" height="60" as="geometry" />
        </mxCell>
        <mxCell id="ic_0oXGj2bZ9a9TocJdS-16" style="edgeStyle=orthogonalEdgeStyle;rounded=0;orthogonalLoop=1;jettySize=auto;html=1;exitX=0.5;exitY=1;exitDx=0;exitDy=0;entryX=0.5;entryY=0;entryDx=0;entryDy=0;" parent="1" source="ic_0oXGj2bZ9a9TocJdS-4" target="ic_0oXGj2bZ9a9TocJdS-15" edge="1">
          <mxGeometry relative="1" as="geometry" />
        </mxCell>
        <mxCell id="ic_0oXGj2bZ9a9TocJdS-4" value="Afficher info &lt;br&gt;joueur" style="rhombus;whiteSpace=wrap;html=1;" parent="1" vertex="1">
          <mxGeometry x="540" y="210" width="120" height="80" as="geometry" />
        </mxCell>
        <mxCell id="ic_0oXGj2bZ9a9TocJdS-19" style="edgeStyle=orthogonalEdgeStyle;rounded=0;orthogonalLoop=1;jettySize=auto;html=1;exitX=0.5;exitY=1;exitDx=0;exitDy=0;entryX=0.5;entryY=0;entryDx=0;entryDy=0;" parent="1" source="ic_0oXGj2bZ9a9TocJdS-5" target="ic_0oXGj2bZ9a9TocJdS-17" edge="1">
          <mxGeometry relative="1" as="geometry" />
        </mxCell>
        <mxCell id="ic_0oXGj2bZ9a9TocJdS-5" value="Utiliser&lt;br&gt;Potion" style="rhombus;whiteSpace=wrap;html=1;" parent="1" vertex="1">
          <mxGeometry x="90" y="60" width="130" height="80" as="geometry" />
        </mxCell>
        <mxCell id="ic_0oXGj2bZ9a9TocJdS-20" style="edgeStyle=orthogonalEdgeStyle;rounded=0;orthogonalLoop=1;jettySize=auto;html=1;exitX=0.5;exitY=1;exitDx=0;exitDy=0;entryX=0.5;entryY=0;entryDx=0;entryDy=0;" parent="1" source="ic_0oXGj2bZ9a9TocJdS-6" target="ic_0oXGj2bZ9a9TocJdS-18" edge="1">
          <mxGeometry relative="1" as="geometry" />
        </mxCell>
        <mxCell id="ic_0oXGj2bZ9a9TocJdS-6" value="Inventaire" style="rhombus;whiteSpace=wrap;html=1;" parent="1" vertex="1">
          <mxGeometry x="220" y="230" width="130" height="80" as="geometry" />
        </mxCell>
        <mxCell id="ic_0oXGj2bZ9a9TocJdS-8" value="LEAVE" style="rhombus;whiteSpace=wrap;html=1;" parent="1" vertex="1">
          <mxGeometry x="540" y="20" width="130" height="80" as="geometry" />
        </mxCell>
        <mxCell id="C2xVnzd4WC-b1rI_vrvW-5" style="edgeStyle=orthogonalEdgeStyle;rounded=0;orthogonalLoop=1;jettySize=auto;html=1;exitX=0.5;exitY=1;exitDx=0;exitDy=0;entryX=0.5;entryY=0;entryDx=0;entryDy=0;" parent="1" source="ic_0oXGj2bZ9a9TocJdS-15" target="C2xVnzd4WC-b1rI_vrvW-1" edge="1">
          <mxGeometry relative="1" as="geometry" />
        </mxCell>
        <mxCell id="ic_0oXGj2bZ9a9TocJdS-15" value="Afficher les infos du joueur" style="rounded=0;whiteSpace=wrap;html=1;" parent="1" vertex="1">
          <mxGeometry x="550" y="320" width="100" height="50" as="geometry" />
        </mxCell>
        <mxCell id="ic_0oXGj2bZ9a9TocJdS-17" value="Consommer la potion &lt;br&gt;et régène des pv" style="rounded=0;whiteSpace=wrap;html=1;" parent="1" vertex="1">
          <mxGeometry x="90" y="170" width="130" height="70" as="geometry" />
        </mxCell>
        <mxCell id="ic_0oXGj2bZ9a9TocJdS-18" value="Afficher l&#39;inventaire du joueur" style="rounded=0;whiteSpace=wrap;html=1;" parent="1" vertex="1">
          <mxGeometry x="235" y="340" width="100" height="50" as="geometry" />
        </mxCell>
        <mxCell id="C2xVnzd4WC-b1rI_vrvW-7" style="edgeStyle=orthogonalEdgeStyle;rounded=0;orthogonalLoop=1;jettySize=auto;html=1;exitX=0.5;exitY=1;exitDx=0;exitDy=0;entryX=0.5;entryY=0;entryDx=0;entryDy=0;" parent="1" source="C2xVnzd4WC-b1rI_vrvW-1" target="C2xVnzd4WC-b1rI_vrvW-6" edge="1">
          <mxGeometry relative="1" as="geometry" />
        </mxCell>
        <mxCell id="C2xVnzd4WC-b1rI_vrvW-13" style="edgeStyle=orthogonalEdgeStyle;rounded=0;orthogonalLoop=1;jettySize=auto;html=1;exitX=0;exitY=0.5;exitDx=0;exitDy=0;entryX=1;entryY=0.5;entryDx=0;entryDy=0;" parent="1" source="C2xVnzd4WC-b1rI_vrvW-1" target="C2xVnzd4WC-b1rI_vrvW-12" edge="1">
          <mxGeometry relative="1" as="geometry" />
        </mxCell>
        <mxCell id="C2xVnzd4WC-b1rI_vrvW-1" value="afficher le départ &lt;br&gt;du jeu" style="rhombus;whiteSpace=wrap;html=1;" parent="1" vertex="1">
          <mxGeometry x="540" y="400" width="120" height="100" as="geometry" />
        </mxCell>
        <mxCell id="C2xVnzd4WC-b1rI_vrvW-9" style="edgeStyle=orthogonalEdgeStyle;rounded=0;orthogonalLoop=1;jettySize=auto;html=1;exitX=0.5;exitY=1;exitDx=0;exitDy=0;entryX=0.5;entryY=0;entryDx=0;entryDy=0;" parent="1" source="C2xVnzd4WC-b1rI_vrvW-6" target="C2xVnzd4WC-b1rI_vrvW-8" edge="1">
          <mxGeometry relative="1" as="geometry" />
        </mxCell>
        <mxCell id="C2xVnzd4WC-b1rI_vrvW-6" value="Afficher marchant" style="rounded=0;whiteSpace=wrap;html=1;" parent="1" vertex="1">
          <mxGeometry x="540" y="530" width="120" height="60" as="geometry" />
        </mxCell>
        <mxCell id="C2xVnzd4WC-b1rI_vrvW-11" style="edgeStyle=orthogonalEdgeStyle;rounded=0;orthogonalLoop=1;jettySize=auto;html=1;exitX=0.5;exitY=1;exitDx=0;exitDy=0;entryX=0;entryY=0.5;entryDx=0;entryDy=0;" parent="1" source="C2xVnzd4WC-b1rI_vrvW-8" target="C2xVnzd4WC-b1rI_vrvW-10" edge="1">
          <mxGeometry relative="1" as="geometry" />
        </mxCell>
        <mxCell id="C2xVnzd4WC-b1rI_vrvW-33" style="edgeStyle=orthogonalEdgeStyle;rounded=0;orthogonalLoop=1;jettySize=auto;html=1;exitX=0;exitY=0.5;exitDx=0;exitDy=0;entryX=0;entryY=0.5;entryDx=0;entryDy=0;" parent="1" source="C2xVnzd4WC-b1rI_vrvW-8" target="C2xVnzd4WC-b1rI_vrvW-32" edge="1">
          <mxGeometry relative="1" as="geometry" />
        </mxCell>
        <mxCell id="C2xVnzd4WC-b1rI_vrvW-8" value="Interagir avec le&amp;nbsp;&lt;br&gt;marchant&amp;nbsp;" style="rhombus;whiteSpace=wrap;html=1;" parent="1" vertex="1">
          <mxGeometry x="540" y="610" width="125" height="100" as="geometry" />
        </mxCell>
        <mxCell id="C2xVnzd4WC-b1rI_vrvW-10" value="Rendre 1pv gratuitement" style="rounded=0;whiteSpace=wrap;html=1;" parent="1" vertex="1">
          <mxGeometry x="670" y="700" width="120" height="60" as="geometry" />
        </mxCell>
        <mxCell id="C2xVnzd4WC-b1rI_vrvW-15" style="edgeStyle=orthogonalEdgeStyle;rounded=0;orthogonalLoop=1;jettySize=auto;html=1;exitX=0.5;exitY=1;exitDx=0;exitDy=0;entryX=0.5;entryY=0;entryDx=0;entryDy=0;" parent="1" source="C2xVnzd4WC-b1rI_vrvW-12" target="C2xVnzd4WC-b1rI_vrvW-14" edge="1">
          <mxGeometry relative="1" as="geometry" />
        </mxCell>
        <mxCell id="C2xVnzd4WC-b1rI_vrvW-12" value="Rencontre avec des&amp;nbsp;&lt;br&gt;monstres" style="rounded=0;whiteSpace=wrap;html=1;" parent="1" vertex="1">
          <mxGeometry x="370" y="420" width="120" height="60" as="geometry" />
        </mxCell>
        <mxCell id="C2xVnzd4WC-b1rI_vrvW-18" style="edgeStyle=orthogonalEdgeStyle;rounded=0;orthogonalLoop=1;jettySize=auto;html=1;exitX=0.5;exitY=1;exitDx=0;exitDy=0;entryX=0.442;entryY=-0.083;entryDx=0;entryDy=0;entryPerimeter=0;" parent="1" source="C2xVnzd4WC-b1rI_vrvW-14" target="C2xVnzd4WC-b1rI_vrvW-16" edge="1">
          <mxGeometry relative="1" as="geometry" />
        </mxCell>
        <mxCell id="C2xVnzd4WC-b1rI_vrvW-14" value="Entrée en combat&lt;br&gt;+&lt;br&gt;tour initiative" style="rhombus;whiteSpace=wrap;html=1;" parent="1" vertex="1">
          <mxGeometry x="340" y="490" width="170" height="110" as="geometry" />
        </mxCell>
        <mxCell id="C2xVnzd4WC-b1rI_vrvW-20" style="edgeStyle=orthogonalEdgeStyle;rounded=0;orthogonalLoop=1;jettySize=auto;html=1;exitX=0.5;exitY=1;exitDx=0;exitDy=0;entryX=0.5;entryY=0;entryDx=0;entryDy=0;" parent="1" source="C2xVnzd4WC-b1rI_vrvW-16" target="C2xVnzd4WC-b1rI_vrvW-19" edge="1">
          <mxGeometry relative="1" as="geometry" />
        </mxCell>
        <mxCell id="C2xVnzd4WC-b1rI_vrvW-16" value="Joueur attaque" style="rounded=0;whiteSpace=wrap;html=1;" parent="1" vertex="1">
          <mxGeometry x="370" y="620" width="120" height="60" as="geometry" />
        </mxCell>
        <mxCell id="C2xVnzd4WC-b1rI_vrvW-22" style="edgeStyle=orthogonalEdgeStyle;rounded=0;orthogonalLoop=1;jettySize=auto;html=1;exitX=0.5;exitY=1;exitDx=0;exitDy=0;entryX=0.5;entryY=0;entryDx=0;entryDy=0;" parent="1" source="C2xVnzd4WC-b1rI_vrvW-19" target="C2xVnzd4WC-b1rI_vrvW-21" edge="1">
          <mxGeometry relative="1" as="geometry" />
        </mxCell>
        <mxCell id="C2xVnzd4WC-b1rI_vrvW-19" value="Tour fini passe&amp;nbsp;&lt;br&gt;au tour des&lt;br&gt;monstres" style="rhombus;whiteSpace=wrap;html=1;" parent="1" vertex="1">
          <mxGeometry x="350" y="710" width="150" height="100" as="geometry" />
        </mxCell>
        <mxCell id="C2xVnzd4WC-b1rI_vrvW-24" style="edgeStyle=orthogonalEdgeStyle;rounded=0;orthogonalLoop=1;jettySize=auto;html=1;exitX=0.5;exitY=1;exitDx=0;exitDy=0;entryX=0.5;entryY=0;entryDx=0;entryDy=0;" parent="1" source="C2xVnzd4WC-b1rI_vrvW-21" target="C2xVnzd4WC-b1rI_vrvW-23" edge="1">
          <mxGeometry relative="1" as="geometry" />
        </mxCell>
        <mxCell id="C2xVnzd4WC-b1rI_vrvW-28" style="edgeStyle=orthogonalEdgeStyle;rounded=0;orthogonalLoop=1;jettySize=auto;html=1;exitX=0;exitY=0.5;exitDx=0;exitDy=0;entryX=1;entryY=0.5;entryDx=0;entryDy=0;" parent="1" source="C2xVnzd4WC-b1rI_vrvW-21" target="C2xVnzd4WC-b1rI_vrvW-27" edge="1">
          <mxGeometry relative="1" as="geometry" />
        </mxCell>
        <mxCell id="duc2R3deK8mwFcJ7qgC8-5" style="edgeStyle=orthogonalEdgeStyle;rounded=0;orthogonalLoop=1;jettySize=auto;html=1;exitX=0;exitY=0;exitDx=0;exitDy=0;entryX=0;entryY=0.25;entryDx=0;entryDy=0;" edge="1" parent="1" source="C2xVnzd4WC-b1rI_vrvW-21" target="C2xVnzd4WC-b1rI_vrvW-16">
          <mxGeometry relative="1" as="geometry">
            <Array as="points">
              <mxPoint x="310" y="830" />
              <mxPoint x="310" y="635" />
            </Array>
          </mxGeometry>
        </mxCell>
        <mxCell id="C2xVnzd4WC-b1rI_vrvW-21" value="Monstre attaque" style="rounded=0;whiteSpace=wrap;html=1;" parent="1" vertex="1">
          <mxGeometry x="365" y="830" width="120" height="60" as="geometry" />
        </mxCell>
        <mxCell id="C2xVnzd4WC-b1rI_vrvW-26" style="edgeStyle=orthogonalEdgeStyle;rounded=0;orthogonalLoop=1;jettySize=auto;html=1;exitX=0.5;exitY=1;exitDx=0;exitDy=0;entryX=0.5;entryY=0;entryDx=0;entryDy=0;" parent="1" source="C2xVnzd4WC-b1rI_vrvW-23" target="C2xVnzd4WC-b1rI_vrvW-25" edge="1">
          <mxGeometry relative="1" as="geometry" />
        </mxCell>
        <mxCell id="C2xVnzd4WC-b1rI_vrvW-23" value="monstre meurt" style="rhombus;whiteSpace=wrap;html=1;" parent="1" vertex="1">
          <mxGeometry x="350" y="920" width="160" height="90" as="geometry" />
        </mxCell>
        <mxCell id="C2xVnzd4WC-b1rI_vrvW-36" style="edgeStyle=orthogonalEdgeStyle;rounded=0;orthogonalLoop=1;jettySize=auto;html=1;exitX=1;exitY=0.5;exitDx=0;exitDy=0;entryX=0;entryY=0.5;entryDx=0;entryDy=0;" parent="1" source="C2xVnzd4WC-b1rI_vrvW-25" target="C2xVnzd4WC-b1rI_vrvW-35" edge="1">
          <mxGeometry relative="1" as="geometry" />
        </mxCell>
        <mxCell id="C2xVnzd4WC-b1rI_vrvW-41" style="edgeStyle=orthogonalEdgeStyle;rounded=0;orthogonalLoop=1;jettySize=auto;html=1;exitX=0.5;exitY=1;exitDx=0;exitDy=0;entryX=0.5;entryY=1;entryDx=0;entryDy=0;" parent="1" source="C2xVnzd4WC-b1rI_vrvW-25" target="C2xVnzd4WC-b1rI_vrvW-39" edge="1">
          <mxGeometry relative="1" as="geometry" />
        </mxCell>
        <mxCell id="C2xVnzd4WC-b1rI_vrvW-25" value="Récupération du loot&lt;br&gt;+&lt;br&gt;monté en niveau" style="rounded=0;whiteSpace=wrap;html=1;" parent="1" vertex="1">
          <mxGeometry x="370" y="1040" width="120" height="60" as="geometry" />
        </mxCell>
        <mxCell id="C2xVnzd4WC-b1rI_vrvW-30" style="edgeStyle=orthogonalEdgeStyle;rounded=0;orthogonalLoop=1;jettySize=auto;html=1;exitX=0.5;exitY=1;exitDx=0;exitDy=0;entryX=0.5;entryY=0;entryDx=0;entryDy=0;" parent="1" source="C2xVnzd4WC-b1rI_vrvW-27" target="C2xVnzd4WC-b1rI_vrvW-29" edge="1">
          <mxGeometry relative="1" as="geometry" />
        </mxCell>
        <mxCell id="C2xVnzd4WC-b1rI_vrvW-27" value="&amp;nbsp;joueur meurt" style="rhombus;whiteSpace=wrap;html=1;" parent="1" vertex="1">
          <mxGeometry x="130" y="820" width="150" height="80" as="geometry" />
        </mxCell>
        <mxCell id="duc2R3deK8mwFcJ7qgC8-6" style="edgeStyle=orthogonalEdgeStyle;rounded=0;orthogonalLoop=1;jettySize=auto;html=1;exitX=0;exitY=0.5;exitDx=0;exitDy=0;entryX=0.5;entryY=0;entryDx=0;entryDy=0;" edge="1" parent="1" source="C2xVnzd4WC-b1rI_vrvW-29" target="ic_0oXGj2bZ9a9TocJdS-1">
          <mxGeometry relative="1" as="geometry">
            <Array as="points">
              <mxPoint x="40" y="965" />
              <mxPoint x="40" y="10" />
              <mxPoint x="400" y="10" />
            </Array>
          </mxGeometry>
        </mxCell>
        <mxCell id="C2xVnzd4WC-b1rI_vrvW-29" value="GAME OVER&lt;br&gt;Résurrection avec&lt;br&gt;&amp;nbsp;50 % de pv&amp;nbsp;" style="rounded=0;whiteSpace=wrap;html=1;" parent="1" vertex="1">
          <mxGeometry x="145" y="935" width="120" height="60" as="geometry" />
        </mxCell>
        <mxCell id="C2xVnzd4WC-b1rI_vrvW-32" value="Propose des objets à vendre" style="rounded=0;whiteSpace=wrap;html=1;" parent="1" vertex="1">
          <mxGeometry x="670" y="767" width="120" height="60" as="geometry" />
        </mxCell>
        <mxCell id="C2xVnzd4WC-b1rI_vrvW-38" style="edgeStyle=orthogonalEdgeStyle;rounded=0;orthogonalLoop=1;jettySize=auto;html=1;exitX=1;exitY=0.5;exitDx=0;exitDy=0;entryX=1;entryY=0.5;entryDx=0;entryDy=0;" parent="1" source="C2xVnzd4WC-b1rI_vrvW-35" target="C2xVnzd4WC-b1rI_vrvW-6" edge="1">
          <mxGeometry relative="1" as="geometry">
            <Array as="points">
              <mxPoint x="810" y="1070" />
              <mxPoint x="810" y="560" />
            </Array>
          </mxGeometry>
        </mxCell>
        <mxCell id="C2xVnzd4WC-b1rI_vrvW-35" value="Vendre les objets" style="rhombus;whiteSpace=wrap;html=1;" parent="1" vertex="1">
          <mxGeometry x="585" y="1025" width="160" height="90" as="geometry" />
        </mxCell>
        <mxCell id="duc2R3deK8mwFcJ7qgC8-2" style="edgeStyle=orthogonalEdgeStyle;rounded=0;orthogonalLoop=1;jettySize=auto;html=1;exitX=1;exitY=0.5;exitDx=0;exitDy=0;entryX=0;entryY=0.75;entryDx=0;entryDy=0;" edge="1" parent="1" source="C2xVnzd4WC-b1rI_vrvW-39" target="C2xVnzd4WC-b1rI_vrvW-42">
          <mxGeometry relative="1" as="geometry" />
        </mxCell>
        <mxCell id="C2xVnzd4WC-b1rI_vrvW-39" value="craft des objets" style="rhombus;whiteSpace=wrap;html=1;" parent="1" vertex="1">
          <mxGeometry x="800" y="120" width="120" height="90" as="geometry" />
        </mxCell>
        <mxCell id="C2xVnzd4WC-b1rI_vrvW-42" value="créer des objets&amp;nbsp;" style="rounded=0;whiteSpace=wrap;html=1;" parent="1" vertex="1">
          <mxGeometry x="970" y="120" width="120" height="60" as="geometry" />
        </mxCell>
      </root>
    </mxGraphModel>
  </diagram>
</mxfile>
